<svg xmlns="http://www.w3.org/2000/svg" viewBox="0 0 1024 1024">
  <defs>
    <radialGradient id="bg" cx="30%" cy="20%" r="90%">
      <stop offset="0" stop-color="#FBF8F2"/>
      <stop offset="1" stop-color="#EFE6D6"/>
    </radialGradient>
  </defs>
  <rect width="1024" height="1024" fill="url(#bg)"/>
  <!-- soft sage field -->
  <circle cx="770" cy="800" r="330" fill="#DDEBE5" opacity="0.7"/>
  <!-- trunk -->
  <path d="M655 520 C740 585 765 690 740 765 C720 830 645 845 615 800" fill="none" stroke="#305460" stroke-width="118" stroke-linecap="round"/>
  <!-- head -->
  <circle cx="520" cy="470" r="235" fill="#305460"/>
  <!-- face opening -->
  <path d="M600 300 C690 300 745 370 740 450 C735 525 680 575 610 572 C545 570 505 520 510 450 C515 370 545 302 600 300 Z" fill="#FDFCFA"/>
  <!-- ear -->
  <path d="M400 255 C290 240 215 330 220 470 C225 600 300 690 410 680 C505 670 545 580 535 470 C525 350 485 265 400 255 Z" fill="#DDEBE5" stroke="#193232" stroke-width="18" stroke-linejoin="round"/>
  <path d="M385 320 C320 318 285 385 290 470 C295 550 335 605 395 600" fill="none" stroke="#305460" stroke-width="16" stroke-linecap="round" opacity="0.5"/>
  <circle cx="640" cy="430" r="30" fill="#193232"/>
  <path d="M672 610 C722 614 737 655 702 694" fill="none" stroke="#E46018" stroke-width="30" stroke-linecap="round"/>
</svg>
