<svg xmlns="http://www.w3.org/2000/svg" width="390" height="844" viewBox="0 0 390 844"><rect width="390" height="844" fill="#FDFCFA"/><path d="M0 0h390v62H0z" fill="#E8F1EE"/><circle cx="78" cy="31" r="10" fill="#305460"/><text x="96" y="36" font-family="Figtree,Arial" font-size="16" font-weight="600" fill="#262421">Ordilo</text><text x="26" y="37" font-family="Arial" font-size="22" fill="#262421">☰</text><rect x="12" y="74" width="366" height="690" rx="22" fill="#FDFCFA" stroke="#EFE8DC"/><rect x="0" y="764" width="390" height="80" fill="#F7F5F1"/><rect x="18" y="780" width="250" height="48" rx="24" fill="#FDFCFA" stroke="#D3CEC5"/><text x="48" y="810" font-family="Figtree,Arial" font-size="15" fill="#625D54">Frage Ordilo …</text><rect x="276" y="780" width="98" height="48" rx="12" fill="#FDFCFA" stroke="#D3CEC5"/><text x="296" y="810" font-family="Figtree,Arial" font-size="14" fill="#262421">Scannen</text><text x="30" y="112" font-family="Figtree,Arial" font-size="15" fill="#625D54">‹ Zurück zu Kontakte</text><rect x="29" y="137" width="332" height="178" rx="20" fill="#F7F5F1" stroke="#D3CEC5"/><circle cx="79" cy="190" r="30" fill="#305460"/><text x="69" y="199" font-family="Figtree,Arial" font-size="23" fill="#FDFCFA">U</text><text x="126" y="174" font-family="Figtree,Arial" font-size="22" font-weight="600" fill="#262421">Ursula Meyer</text><text x="126" y="198" font-family="Figtree,Arial" font-size="14" fill="#625D54">Kita Sonnenblume</text><text x="126" y="220" font-family="Figtree,Arial" font-size="14" fill="#625D54">Leitung</text><rect x="47" y="248" width="88" height="44" rx="12" fill="#305460"/><text x="68" y="275" font-family="Figtree,Arial" font-size="14" fill="#FDFCFA">Anrufen</text><rect x="145" y="248" width="98" height="44" rx="12" fill="#FDFCFA" stroke="#D3CEC5"/><text x="164" y="275" font-family="Figtree,Arial" font-size="14" fill="#262421">WhatsApp</text><rect x="253" y="248" width="88" height="44" rx="12" fill="#FDFCFA" stroke="#D3CEC5"/><text x="276" y="275" font-family="Figtree,Arial" font-size="14" fill="#262421">E-Mail</text><text x="30" y="351" font-family="Figtree,Arial" font-size="15" font-weight="600" fill="#262421">Kontaktdaten</text><rect x="29" y="365" width="332" height="116" rx="12" fill="#F7F5F1" stroke="#D3CEC5"/><text x="47" y="394" font-family="Figtree,Arial" font-size="12" fill="#625D54">Telefon</text><text x="47" y="417" font-family="Figtree,Arial" font-size="15" fill="#305460">0176 12345678</text><line x1="47" y1="432" x2="343" y2="432" stroke="#D3CEC5"/><text x="47" y="456" font-family="Figtree,Arial" font-size="15" fill="#305460">ursula@kita-sonnenblume.de</text><text x="30" y="520" font-family="Figtree,Arial" font-size="15" font-weight="600" fill="#262421">Quellen</text><rect x="29" y="535" width="332" height="72" rx="12" fill="#F7F5F1" stroke="#D3CEC5"/><text x="48" y="565" font-family="Figtree,Arial" font-size="14" font-weight="600" fill="#262421">Elternbrief Sommerfest</text><text x="48" y="587" font-family="Figtree,Arial" font-size="12" fill="#625D54">Bestätigt am 18. August</text></svg>